<?xml version="1.0" encoding="UTF-8" standalone="no"?>
<!DOCTYPE svg PUBLIC "-//W3C//DTD SVG 1.1//EN"
 "http://www.w3.org/Graphics/SVG/1.1/DTD/svg11.dtd">

<svg width="1142pt" height="231pt"
 viewBox="0.00 0.00 1142.00 231.00" xmlns="http://www.w3.org/2000/svg" xmlns:xlink="http://www.w3.org/1999/xlink">
<g id="graph0" class="graph" transform="scale(1 1) rotate(0) translate(4 227)">
<title>claim&#45;routing</title>
<polygon fill="white" stroke="none" points="-4,4 -4,-227 1137.88,-227 1137.88,4 -4,4"/>

<g id="node1" class="node">
<title>dest</title>
<polygon fill="none" stroke="black" points="548.12,-223 407.47,-205 548.12,-187 688.78,-205 548.12,-223"/>
<text xml:space="preserve" text-anchor="middle" x="548.12" y="-199.95" font-family="Times,serif" font-size="14.00">Claim destination chain</text>
</g>

<g id="node2" class="node">
<title>starknet</title>
<polygon fill="none" stroke="black" points="458.38,-134.5 377.88,-134.5 377.88,-93.5 458.38,-93.5 458.38,-134.5"/>
<text xml:space="preserve" text-anchor="middle" x="418.12" y="-117.2" font-family="Times,serif" font-size="14.00">Starknet</text>
<text xml:space="preserve" text-anchor="middle" x="418.12" y="-100.7" font-family="Times,serif" font-size="14.00">pool payout</text>
</g>

<g id="edge1" class="edge">
<title>dest&#45;&gt;starknet</title>
<path fill="none" stroke="black" d="M525.21,-189.48C508.87,-179 486.46,-164.41 467.12,-151 462.75,-147.96 458.19,-144.72 453.7,-141.48"/>
<polygon fill="black" stroke="black" points="456.01,-138.83 445.86,-135.77 451.88,-144.49 456.01,-138.83"/>
</g>

<g id="node3" class="node">
<title>evm</title>
<polygon fill="none" stroke="black" points="619.88,-134.5 476.38,-134.5 476.38,-93.5 619.88,-93.5 619.88,-134.5"/>
<text xml:space="preserve" text-anchor="middle" x="548.12" y="-117.2" font-family="Times,serif" font-size="14.00">EVM</text>
<text xml:space="preserve" text-anchor="middle" x="548.12" y="-100.7" font-family="Times,serif" font-size="14.00">privacy&#45;bridge cashOut</text>
</g>

<g id="edge2" class="edge">
<title>dest&#45;&gt;evm</title>
<path fill="none" stroke="black" d="M548.12,-186.84C548.12,-175.35 548.12,-159.9 548.12,-146.27"/>
<polygon fill="black" stroke="black" points="551.63,-146.42 548.13,-136.42 544.63,-146.42 551.63,-146.42"/>
</g>

<g id="node9" class="node">
<title>solana</title>
<polygon fill="none" stroke="black" points="864.12,-151 638.12,-151 638.12,-77 864.12,-77 864.12,-151"/>
<text xml:space="preserve" text-anchor="middle" x="751.12" y="-133.7" font-family="Times,serif" font-size="14.00">Solana</text>
<text xml:space="preserve" text-anchor="middle" x="751.12" y="-117.2" font-family="Times,serif" font-size="14.00">NEAR Intents connector implemented</text>
<text xml:space="preserve" text-anchor="middle" x="751.12" y="-100.7" font-family="Times,serif" font-size="14.00">e2e claim not exercised</text>
<text xml:space="preserve" text-anchor="middle" x="751.12" y="-84.2" font-family="Times,serif" font-size="14.00">(no testnet; mainnet needs sign&#45;off)</text>
</g>

<g id="edge3" class="edge">
<title>dest&#45;&gt;solana</title>
<path fill="none" stroke="black" d="M578.96,-190.48C600.1,-181.21 629.36,-168.39 657.76,-155.93"/>
<polygon fill="black" stroke="black" points="659.03,-159.2 666.78,-151.98 656.22,-152.79 659.03,-159.2"/>
</g>

<g id="node4" class="node">
<title>ethereum</title>
<polygon fill="none" stroke="black" points="180.25,-41 0,-41 0,0 180.25,0 180.25,-41"/>
<text xml:space="preserve" text-anchor="middle" x="90.12" y="-23.7" font-family="Times,serif" font-size="14.00">Ethereum</text>
<text xml:space="preserve" text-anchor="middle" x="90.12" y="-7.2" font-family="Times,serif" font-size="14.00">mainnet 1 / Sepolia 11155111</text>
</g>

<g id="edge4" class="edge">
<title>evm&#45;&gt;ethereum</title>
<path fill="none" stroke="black" d="M509.42,-93.07C496.3,-87.05 481.35,-80.99 467.12,-77 350.68,-44.33 314.22,-60.06 192.02,-41.38"/>
<polygon fill="black" stroke="black" points="192.64,-37.93 182.21,-39.83 191.54,-44.85 192.64,-37.93"/>
</g>

<g id="node5" class="node">
<title>optimism</title>
<polygon fill="none" stroke="black" points="405.75,-41 198.5,-41 198.5,0 405.75,0 405.75,-41"/>
<text xml:space="preserve" text-anchor="middle" x="302.12" y="-23.7" font-family="Times,serif" font-size="14.00">Optimism</text>
<text xml:space="preserve" text-anchor="middle" x="302.12" y="-7.2" font-family="Times,serif" font-size="14.00">mainnet 10 / OP Sepolia 11155420</text>
</g>

<g id="edge5" class="edge">
<title>evm&#45;&gt;optimism</title>
<path fill="none" stroke="black" d="M505.56,-93.19C493.26,-87.7 479.74,-81.91 467.12,-77 437.91,-65.62 405.27,-54.35 376.79,-44.97"/>
<polygon fill="black" stroke="black" points="378.12,-41.72 367.53,-41.94 375.95,-48.38 378.12,-41.72"/>
</g>

<g id="node6" class="node">
<title>arbitrum</title>
<polygon fill="none" stroke="black" points="672,-41 424.25,-41 424.25,0 672,0 672,-41"/>
<text xml:space="preserve" text-anchor="middle" x="548.12" y="-23.7" font-family="Times,serif" font-size="14.00">Arbitrum One</text>
<text xml:space="preserve" text-anchor="middle" x="548.12" y="-7.2" font-family="Times,serif" font-size="14.00">mainnet 42161 / Arbitrum Sepolia 421614</text>
</g>

<g id="edge6" class="edge">
<title>evm&#45;&gt;arbitrum</title>
<path fill="none" stroke="black" d="M548.12,-93.15C548.12,-81.28 548.12,-65.94 548.12,-52.5"/>
<polygon fill="black" stroke="black" points="551.63,-52.83 548.13,-42.83 544.63,-52.83 551.63,-52.83"/>
</g>

<g id="node7" class="node">
<title>base</title>
<polygon fill="none" stroke="black" points="900.25,-41 690,-41 690,0 900.25,0 900.25,-41"/>
<text xml:space="preserve" text-anchor="middle" x="795.12" y="-23.7" font-family="Times,serif" font-size="14.00">Base</text>
<text xml:space="preserve" text-anchor="middle" x="795.12" y="-7.2" font-family="Times,serif" font-size="14.00">mainnet 8453 / Base Sepolia 84532</text>
</g>

<g id="edge7" class="edge">
<title>evm&#45;&gt;base</title>
<path fill="none" stroke="black" d="M590.68,-93.17C602.99,-87.69 616.5,-81.9 629.12,-77 658.51,-65.59 691.34,-54.31 720,-44.93"/>
<polygon fill="black" stroke="black" points="720.9,-48.32 729.32,-41.9 718.73,-41.66 720.9,-48.32"/>
</g>

<g id="node8" class="node">
<title>polygon</title>
<polygon fill="none" stroke="black" points="1133.88,-41 918.38,-41 918.38,0 1133.88,0 1133.88,-41"/>
<text xml:space="preserve" text-anchor="middle" x="1026.12" y="-23.7" font-family="Times,serif" font-size="14.00">Polygon</text>
<text xml:space="preserve" text-anchor="middle" x="1026.12" y="-7.2" font-family="Times,serif" font-size="14.00">mainnet 137 / Polygon Amoy 80002</text>
</g>

<g id="edge8" class="edge">
<title>evm&#45;&gt;polygon</title>
<path fill="none" stroke="black" d="M586.83,-93.06C599.95,-87.04 614.9,-80.98 629.12,-77 746.52,-44.12 782.95,-58.44 907.02,-41.24"/>
<polygon fill="black" stroke="black" points="907.19,-44.75 916.6,-39.87 906.2,-37.82 907.19,-44.75"/>
</g>
</g>
</svg>
